<?xml version="1.0" encoding="UTF-8" ?>
<svg version="1.1" width="16" height="16" xmlns="http://www.w3.org/2000/svg">
<rect x="5" y="0" width="1" height="1" fill="#000000" />
<rect x="6" y="0" width="1" height="1" fill="#000000" />
<rect x="7" y="0" width="1" height="1" fill="#000000" />
<rect x="8" y="0" width="1" height="1" fill="#000000" />
<rect x="9" y="0" width="1" height="1" fill="#000000" />
<rect x="10" y="0" width="1" height="1" fill="#000000" />
<rect x="3" y="1" width="1" height="1" fill="#000000" />
<rect x="4" y="1" width="1" height="1" fill="#000000" />
<rect x="11" y="1" width="1" height="1" fill="#000000" />
<rect x="12" y="1" width="1" height="1" fill="#000000" />
<rect x="2" y="2" width="1" height="1" fill="#000000" />
<rect x="13" y="2" width="1" height="1" fill="#000000" />
<rect x="1" y="3" width="1" height="1" fill="#000000" />
<rect x="14" y="3" width="1" height="1" fill="#000000" />
<rect x="1" y="4" width="1" height="1" fill="#000000" />
<rect x="12" y="4" width="1" height="1" fill="#000000" />
<rect x="14" y="4" width="1" height="1" fill="#000000" />
<rect x="0" y="5" width="1" height="1" fill="#000000" />
<rect x="11" y="5" width="1" height="1" fill="#000000" />
<rect x="12" y="5" width="1" height="1" fill="#000000" />
<rect x="15" y="5" width="1" height="1" fill="#000000" />
<rect x="0" y="6" width="1" height="1" fill="#000000" />
<rect x="10" y="6" width="1" height="1" fill="#000000" />
<rect x="11" y="6" width="1" height="1" fill="#000000" />
<rect x="15" y="6" width="1" height="1" fill="#000000" />
<rect x="0" y="7" width="1" height="1" fill="#000000" />
<rect x="3" y="7" width="1" height="1" fill="#000000" />
<rect x="9" y="7" width="1" height="1" fill="#000000" />
<rect x="10" y="7" width="1" height="1" fill="#000000" />
<rect x="15" y="7" width="1" height="1" fill="#000000" />
<rect x="0" y="8" width="1" height="1" fill="#000000" />
<rect x="3" y="8" width="1" height="1" fill="#000000" />
<rect x="4" y="8" width="1" height="1" fill="#000000" />
<rect x="8" y="8" width="1" height="1" fill="#000000" />
<rect x="9" y="8" width="1" height="1" fill="#000000" />
<rect x="15" y="8" width="1" height="1" fill="#000000" />
<rect x="0" y="9" width="1" height="1" fill="#000000" />
<rect x="4" y="9" width="1" height="1" fill="#000000" />
<rect x="5" y="9" width="1" height="1" fill="#000000" />
<rect x="7" y="9" width="1" height="1" fill="#000000" />
<rect x="8" y="9" width="1" height="1" fill="#000000" />
<rect x="15" y="9" width="1" height="1" fill="#000000" />
<rect x="0" y="10" width="1" height="1" fill="#000000" />
<rect x="5" y="10" width="1" height="1" fill="#000000" />
<rect x="6" y="10" width="1" height="1" fill="#000000" />
<rect x="7" y="10" width="1" height="1" fill="#000000" />
<rect x="15" y="10" width="1" height="1" fill="#000000" />
<rect x="1" y="11" width="1" height="1" fill="#000000" />
<rect x="6" y="11" width="1" height="1" fill="#000000" />
<rect x="14" y="11" width="1" height="1" fill="#000000" />
<rect x="1" y="12" width="1" height="1" fill="#000000" />
<rect x="14" y="12" width="1" height="1" fill="#000000" />
<rect x="2" y="13" width="1" height="1" fill="#000000" />
<rect x="13" y="13" width="1" height="1" fill="#000000" />
<rect x="3" y="14" width="1" height="1" fill="#000000" />
<rect x="4" y="14" width="1" height="1" fill="#000000" />
<rect x="11" y="14" width="1" height="1" fill="#000000" />
<rect x="12" y="14" width="1" height="1" fill="#000000" />
<rect x="5" y="15" width="1" height="1" fill="#000000" />
<rect x="6" y="15" width="1" height="1" fill="#000000" />
<rect x="7" y="15" width="1" height="1" fill="#000000" />
<rect x="8" y="15" width="1" height="1" fill="#000000" />
<rect x="9" y="15" width="1" height="1" fill="#000000" />
<rect x="10" y="15" width="1" height="1" fill="#000000" />
</svg>