<?xml version="1.0" encoding="UTF-8" ?>
<svg version="1.1" width="16" height="16" xmlns="http://www.w3.org/2000/svg">
<rect x="6" y="3" width="1" height="1" fill="#333333" />
<rect x="6" y="4" width="1" height="1" fill="#333333" />
<rect x="7" y="5" width="1" height="1" fill="#333333" />
<rect x="2" y="6" width="1" height="1" fill="#333333" />
<rect x="3" y="6" width="1" height="1" fill="#333333" />
<rect x="4" y="6" width="1" height="1" fill="#333333" />
<rect x="5" y="6" width="1" height="1" fill="#333333" />
<rect x="6" y="6" width="1" height="1" fill="#333333" />
<rect x="7" y="6" width="1" height="1" fill="#333333" />
<rect x="8" y="6" width="1" height="1" fill="#333333" />
<rect x="9" y="6" width="1" height="1" fill="#333333" />
<rect x="10" y="6" width="1" height="1" fill="#333333" />
<rect x="11" y="6" width="1" height="1" fill="#333333" />
<rect x="12" y="6" width="1" height="1" fill="#333333" />
<rect x="1" y="7" width="1" height="1" fill="#333333" />
<rect x="2" y="7" width="1" height="1" fill="#D7D7D7" />
<rect x="3" y="7" width="1" height="1" fill="#D7D7D7" />
<rect x="4" y="7" width="1" height="1" fill="#D7D7D7" />
<rect x="5" y="7" width="1" height="1" fill="#D7D7D7" />
<rect x="6" y="7" width="1" height="1" fill="#D7D7D7" />
<rect x="7" y="7" width="1" height="1" fill="#D7D7D7" />
<rect x="8" y="7" width="1" height="1" fill="#D7D7D7" />
<rect x="9" y="7" width="1" height="1" fill="#D7D7D7" />
<rect x="10" y="7" width="1" height="1" fill="#D7D7D7" />
<rect x="11" y="7" width="1" height="1" fill="#D7D7D7" />
<rect x="12" y="7" width="1" height="1" fill="#D7D7D7" />
<rect x="13" y="7" width="1" height="1" fill="#333333" />
<rect x="0" y="8" width="1" height="1" fill="#333333" />
<rect x="1" y="8" width="1" height="1" fill="#D7D7D7" />
<rect x="2" y="8" width="1" height="1" fill="#D7D7D7" />
<rect x="3" y="8" width="1" height="1" fill="#333333" />
<rect x="4" y="8" width="1" height="1" fill="#D7D7D7" />
<rect x="5" y="8" width="1" height="1" fill="#D7D7D7" />
<rect x="6" y="8" width="1" height="1" fill="#D7D7D7" />
<rect x="7" y="8" width="1" height="1" fill="#D7D7D7" />
<rect x="8" y="8" width="1" height="1" fill="#D7D7D7" />
<rect x="9" y="8" width="1" height="1" fill="#D7D7D7" />
<rect x="10" y="8" width="1" height="1" fill="#D7D7D7" />
<rect x="11" y="8" width="1" height="1" fill="#BA63F8" />
<rect x="12" y="8" width="1" height="1" fill="#D7D7D7" />
<rect x="13" y="8" width="1" height="1" fill="#D7D7D7" />
<rect x="14" y="8" width="1" height="1" fill="#333333" />
<rect x="0" y="9" width="1" height="1" fill="#333333" />
<rect x="1" y="9" width="1" height="1" fill="#D7D7D7" />
<rect x="2" y="9" width="1" height="1" fill="#333333" />
<rect x="3" y="9" width="1" height="1" fill="#333333" />
<rect x="4" y="9" width="1" height="1" fill="#333333" />
<rect x="5" y="9" width="1" height="1" fill="#D7D7D7" />
<rect x="6" y="9" width="1" height="1" fill="#D7D7D7" />
<rect x="7" y="9" width="1" height="1" fill="#D7D7D7" />
<rect x="8" y="9" width="1" height="1" fill="#D7D7D7" />
<rect x="9" y="9" width="1" height="1" fill="#D7D7D7" />
<rect x="10" y="9" width="1" height="1" fill="#BA63F8" />
<rect x="11" y="9" width="1" height="1" fill="#D7D7D7" />
<rect x="12" y="9" width="1" height="1" fill="#9812ED" />
<rect x="13" y="9" width="1" height="1" fill="#D7D7D7" />
<rect x="14" y="9" width="1" height="1" fill="#333333" />
<rect x="0" y="10" width="1" height="1" fill="#333333" />
<rect x="1" y="10" width="1" height="1" fill="#D7D7D7" />
<rect x="2" y="10" width="1" height="1" fill="#D7D7D7" />
<rect x="3" y="10" width="1" height="1" fill="#333333" />
<rect x="4" y="10" width="1" height="1" fill="#D7D7D7" />
<rect x="5" y="10" width="1" height="1" fill="#D7D7D7" />
<rect x="6" y="10" width="1" height="1" fill="#333333" />
<rect x="7" y="10" width="1" height="1" fill="#D7D7D7" />
<rect x="8" y="10" width="1" height="1" fill="#333333" />
<rect x="9" y="10" width="1" height="1" fill="#D7D7D7" />
<rect x="10" y="10" width="1" height="1" fill="#D7D7D7" />
<rect x="11" y="10" width="1" height="1" fill="#9812ED" />
<rect x="12" y="10" width="1" height="1" fill="#D7D7D7" />
<rect x="13" y="10" width="1" height="1" fill="#D7D7D7" />
<rect x="14" y="10" width="1" height="1" fill="#333333" />
<rect x="1" y="11" width="1" height="1" fill="#333333" />
<rect x="2" y="11" width="1" height="1" fill="#D7D7D7" />
<rect x="3" y="11" width="1" height="1" fill="#D7D7D7" />
<rect x="4" y="11" width="1" height="1" fill="#D7D7D7" />
<rect x="5" y="11" width="1" height="1" fill="#D7D7D7" />
<rect x="6" y="11" width="1" height="1" fill="#D7D7D7" />
<rect x="7" y="11" width="1" height="1" fill="#D7D7D7" />
<rect x="8" y="11" width="1" height="1" fill="#D7D7D7" />
<rect x="9" y="11" width="1" height="1" fill="#D7D7D7" />
<rect x="10" y="11" width="1" height="1" fill="#D7D7D7" />
<rect x="11" y="11" width="1" height="1" fill="#D7D7D7" />
<rect x="12" y="11" width="1" height="1" fill="#D7D7D7" />
<rect x="13" y="11" width="1" height="1" fill="#333333" />
<rect x="2" y="12" width="1" height="1" fill="#333333" />
<rect x="3" y="12" width="1" height="1" fill="#333333" />
<rect x="4" y="12" width="1" height="1" fill="#333333" />
<rect x="5" y="12" width="1" height="1" fill="#333333" />
<rect x="6" y="12" width="1" height="1" fill="#333333" />
<rect x="7" y="12" width="1" height="1" fill="#333333" />
<rect x="8" y="12" width="1" height="1" fill="#333333" />
<rect x="9" y="12" width="1" height="1" fill="#333333" />
<rect x="10" y="12" width="1" height="1" fill="#333333" />
<rect x="11" y="12" width="1" height="1" fill="#333333" />
<rect x="12" y="12" width="1" height="1" fill="#333333" />
</svg>